<?xml version="1.0" encoding="utf-8"?>
<svg version="1.1" xmlns:xlink="http://www.w3.org/1999/xlink" width="8px" height="9px" xmlns="http://www.w3.org/2000/svg">
  <g transform="matrix(1 0 0 1 -218 -338 )">
    <path d="M 0.615384615384615 6.91071428571428  L 0.615384615384615 8.35714285714286  L 2 8.35714285714286  L 2 6.91071428571428  L 0.615384615384615 6.91071428571428  Z M 2.30769230769231 6.91071428571428  L 2.30769230769231 8.35714285714286  L 3.84615384615385 8.35714285714286  L 3.84615384615385 6.91071428571428  L 2.30769230769231 6.91071428571428  Z M 0.615384615384615 4.98214285714286  L 0.615384615384615 6.58928571428572  L 2 6.58928571428572  L 2 4.98214285714286  L 0.615384615384615 4.98214285714286  Z M 2.30769230769231 4.98214285714286  L 2.30769230769231 6.58928571428572  L 3.84615384615385 6.58928571428572  L 3.84615384615385 4.98214285714286  L 2.30769230769231 4.98214285714286  Z M 0.615384615384615 3.21428571428571  L 0.615384615384615 4.66071428571428  L 2 4.66071428571428  L 2 3.21428571428571  L 0.615384615384615 3.21428571428571  Z M 4.15384615384615 6.91071428571428  L 4.15384615384615 8.35714285714286  L 5.69230769230769 8.35714285714286  L 5.69230769230769 6.91071428571428  L 4.15384615384615 6.91071428571428  Z M 2.30769230769231 3.21428571428571  L 2.30769230769231 4.66071428571428  L 3.84615384615385 4.66071428571428  L 3.84615384615385 3.21428571428571  L 2.30769230769231 3.21428571428571  Z M 6 6.91071428571428  L 6 8.35714285714286  L 7.38461538461539 8.35714285714286  L 7.38461538461539 6.91071428571428  L 6 6.91071428571428  Z M 4.15384615384615 4.98214285714286  L 4.15384615384615 6.58928571428572  L 5.69230769230769 6.58928571428572  L 5.69230769230769 4.98214285714286  L 4.15384615384615 4.98214285714286  Z M 2.41586538461538 2.36300223214286  C 2.4463141025641 2.33119419642857  2.46153846153846 2.29352678571428  2.46153846153846 2.25  L 2.46153846153846 0.803571428571429  C 2.46153846153846 0.760044642857143  2.4463141025641 0.722377232142857  2.41586538461538 0.690569196428571  C 2.38541666666667 0.658761160714285  2.34935897435897 0.642857142857143  2.30769230769231 0.642857142857143  L 2 0.642857142857143  C 1.95833333333333 0.642857142857143  1.92227564102564 0.658761160714285  1.89182692307692 0.690569196428571  C 1.8613782051282 0.722377232142857  1.84615384615385 0.760044642857143  1.84615384615385 0.803571428571429  L 1.84615384615385 2.25  C 1.84615384615385 2.29352678571428  1.8613782051282 2.33119419642857  1.89182692307692 2.36300223214286  C 1.92227564102564 2.39481026785714  1.95833333333333 2.41071428571429  2 2.41071428571429  L 2.30769230769231 2.41071428571429  C 2.34935897435897 2.41071428571429  2.38541666666667 2.39481026785714  2.41586538461538 2.36300223214286  Z M 6 4.98214285714286  L 6 6.58928571428572  L 7.38461538461539 6.58928571428572  L 7.38461538461539 4.98214285714286  L 6 4.98214285714286  Z M 4.15384615384615 3.21428571428571  L 4.15384615384615 4.66071428571428  L 5.69230769230769 4.66071428571428  L 5.69230769230769 3.21428571428571  L 4.15384615384615 3.21428571428571  Z M 6 3.21428571428571  L 6 4.66071428571428  L 7.38461538461539 4.66071428571428  L 7.38461538461539 3.21428571428571  L 6 3.21428571428571  Z M 6.10817307692308 2.36300223214286  C 6.1386217948718 2.33119419642857  6.15384615384615 2.29352678571428  6.15384615384615 2.25  L 6.15384615384615 0.803571428571429  C 6.15384615384615 0.760044642857143  6.1386217948718 0.722377232142857  6.10817307692308 0.690569196428571  C 6.07772435897436 0.658761160714285  6.04166666666667 0.642857142857143  6 0.642857142857143  L 5.69230769230769 0.642857142857143  C 5.65064102564103 0.642857142857143  5.61458333333333 0.658761160714285  5.58413461538462 0.690569196428571  C 5.5536858974359 0.722377232142857  5.53846153846154 0.760044642857143  5.53846153846154 0.803571428571429  L 5.53846153846154 2.25  C 5.53846153846154 2.29352678571428  5.5536858974359 2.33119419642857  5.58413461538462 2.36300223214286  C 5.61458333333333 2.39481026785714  5.65064102564103 2.41071428571429  5.69230769230769 2.41071428571429  L 6 2.41071428571429  C 6.04166666666667 2.41071428571429  6.07772435897436 2.39481026785714  6.10817307692308 2.36300223214286  Z M 7.81730769230769 1.4765625  C 7.93910256410256 1.60379464285714  8 1.75446428571429  8 1.92857142857143  L 8 8.35714285714286  C 8 8.53125  7.93910256410256 8.68191964285714  7.81730769230769 8.80915178571429  C 7.69551282051282 8.93638392857143  7.55128205128205 9  7.38461538461539 9  L 0.615384615384615 9  C 0.448717948717949 9  0.30448717948718 8.93638392857143  0.182692307692308 8.80915178571429  C 0.0608974358974359 8.68191964285714  0 8.53125  0 8.35714285714286  L 0 1.92857142857143  C 0 1.75446428571429  0.0608974358974359 1.60379464285714  0.182692307692308 1.4765625  C 0.30448717948718 1.34933035714286  0.448717948717949 1.28571428571429  0.615384615384615 1.28571428571429  L 1.23076923076923 1.28571428571429  L 1.23076923076923 0.803571428571429  C 1.23076923076923 0.582589285714286  1.30608974358974 0.393415178571428  1.45673076923077 0.236049107142857  C 1.6073717948718 0.0786830357142858  1.78846153846154 0  2 0  L 2.30769230769231 0  C 2.51923076923077 0  2.70032051282051 0.0786830357142858  2.85096153846154 0.236049107142857  C 3.00160256410256 0.393415178571428  3.07692307692308 0.582589285714286  3.07692307692308 0.803571428571429  L 3.07692307692308 1.28571428571429  L 4.92307692307692 1.28571428571429  L 4.92307692307692 0.803571428571429  C 4.92307692307692 0.582589285714286  4.99839743589744 0.393415178571428  5.14903846153846 0.236049107142857  C 5.29967948717949 0.0786830357142858  5.48076923076923 0  5.69230769230769 0  L 6 0  C 6.21153846153846 0  6.39262820512821 0.0786830357142858  6.54326923076923 0.236049107142857  C 6.69391025641026 0.393415178571428  6.76923076923077 0.582589285714286  6.76923076923077 0.803571428571429  L 6.76923076923077 1.28571428571429  L 7.38461538461539 1.28571428571429  C 7.55128205128205 1.28571428571429  7.69551282051282 1.34933035714286  7.81730769230769 1.4765625  Z " fill-rule="nonzero" fill="#8c8c8c" stroke="none" transform="matrix(1 0 0 1 218 338 )" />
  </g>
</svg>