<?xml version="1.0" encoding="utf-8"?>
<svg version="1.1" xmlns:xlink="http://www.w3.org/1999/xlink" width="410px" height="157px" xmlns="http://www.w3.org/2000/svg">
  <g transform="matrix(1 0 0 1 -391 -17 )">
    <path d="M 391 17  L 801 17  L 801 174  L 391 174  L 391 17  " fill-rule="nonzero" fill="#cccccc" stroke="none" />
    <path d="M 402 28  L 790 28  L 790 163  L 402 163  L 402 28  " fill-rule="nonzero" fill="#ffffff" stroke="none" />
    <path d="M 615.975 64.1  C 609.381 64.1  604.2 58.919  604.2 52.325  C 604.2 45.731  609.381 40.55  615.975 40.55  C 622.569 40.55  627.75 45.731  627.75 52.325  C 627.75 58.919  622.569 64.1  615.975 64.1  " fill-rule="nonzero" fill="#cccccc" stroke="none" />
    <path d="M 406 159  L 406 89.15  L 501 57.4  L 634 129.820975609756  L 710 76.45  L 786 129.820975609756  L 786 159  L 406 159  " fill-rule="nonzero" fill="#169bd5" stroke="none" />
  </g>
</svg>