<?xml version="1.0" encoding="utf-8"?>
<svg version="1.1" xmlns:xlink="http://www.w3.org/1999/xlink" width="12px" height="12px" viewBox="430 774.5  12 12" xmlns="http://www.w3.org/2000/svg">
  <path d="M 436 774.5  C 439.36 774.5  442 777.14  442 780.5  C 442 783.86  439.36 786.5  436 786.5  C 432.64 786.5  430 783.86  430 780.5  C 430 777.14  432.64 774.5  436 774.5  Z " fill-rule="nonzero" fill="#ffffff" stroke="none" />
  <path d="M 436 775  C 439.08 775  441.5 777.42  441.5 780.5  C 441.5 783.58  439.08 786  436 786  C 432.92 786  430.5 783.58  430.5 780.5  C 430.5 777.42  432.92 775  436 775  Z " stroke-width="1" stroke="#797979" fill="none" />
  <path d="M 436 783.5  C 434.32 783.5  433 782.18  433 780.5  C 433 778.82  434.32 777.5  436 777.5  C 437.68 777.5  439 778.82  439 780.5  C 439 782.18  437.68 783.5  436 783.5  " fill-rule="nonzero" fill="#797979" stroke="none" />
</svg>