<?xml version="1.0" encoding="utf-8"?>
<svg version="1.1" xmlns:xlink="http://www.w3.org/1999/xlink" width="12px" height="12px" viewBox="544 668.5  12 12" xmlns="http://www.w3.org/2000/svg">
  <path d="M 550 668.5  C 553.36 668.5  556 671.14  556 674.5  C 556 677.86  553.36 680.5  550 680.5  C 546.64 680.5  544 677.86  544 674.5  C 544 671.14  546.64 668.5  550 668.5  Z " fill-rule="nonzero" fill="#ffffff" stroke="none" />
  <path d="M 550 669  C 553.08 669  555.5 671.42  555.5 674.5  C 555.5 677.58  553.08 680  550 680  C 546.92 680  544.5 677.58  544.5 674.5  C 544.5 671.42  546.92 669  550 669  Z " stroke-width="1" stroke="#797979" fill="none" />
  <path d="M 550 677.5  C 548.32 677.5  547 676.18  547 674.5  C 547 672.82  548.32 671.5  550 671.5  C 551.68 671.5  553 672.82  553 674.5  C 553 676.18  551.68 677.5  550 677.5  " fill-rule="nonzero" fill="#797979" stroke="none" />
</svg>