<?xml version="1.0" encoding="utf-8"?>
<svg version="1.1" xmlns:xlink="http://www.w3.org/1999/xlink" width="12px" height="12px" viewBox="430 731.5  12 12" xmlns="http://www.w3.org/2000/svg">
  <path d="M 436 731.5  C 439.36 731.5  442 734.14  442 737.5  C 442 740.86  439.36 743.5  436 743.5  C 432.64 743.5  430 740.86  430 737.5  C 430 734.14  432.64 731.5  436 731.5  Z " fill-rule="nonzero" fill="#ffffff" stroke="none" />
  <path d="M 436 732  C 439.08 732  441.5 734.42  441.5 737.5  C 441.5 740.58  439.08 743  436 743  C 432.92 743  430.5 740.58  430.5 737.5  C 430.5 734.42  432.92 732  436 732  Z " stroke-width="1" stroke="#797979" fill="none" />
  <path d="M 436 740.5  C 434.32 740.5  433 739.18  433 737.5  C 433 735.82  434.32 734.5  436 734.5  C 437.68 734.5  439 735.82  439 737.5  C 439 739.18  437.68 740.5  436 740.5  " fill-rule="nonzero" fill="#797979" stroke="none" />
</svg>