<?xml version="1.0" encoding="utf-8"?>
<svg version="1.1" xmlns:xlink="http://www.w3.org/1999/xlink" width="12px" height="12px" viewBox="544 731.5  12 12" xmlns="http://www.w3.org/2000/svg">
  <path d="M 550 731.5  C 553.36 731.5  556 734.14  556 737.5  C 556 740.86  553.36 743.5  550 743.5  C 546.64 743.5  544 740.86  544 737.5  C 544 734.14  546.64 731.5  550 731.5  Z " fill-rule="nonzero" fill="#ffffff" stroke="none" />
  <path d="M 550 732  C 553.08 732  555.5 734.42  555.5 737.5  C 555.5 740.58  553.08 743  550 743  C 546.92 743  544.5 740.58  544.5 737.5  C 544.5 734.42  546.92 732  550 732  Z " stroke-width="1" stroke="#797979" fill="none" />
  <path d="M 550 740.5  C 548.32 740.5  547 739.18  547 737.5  C 547 735.82  548.32 734.5  550 734.5  C 551.68 734.5  553 735.82  553 737.5  C 553 739.18  551.68 740.5  550 740.5  " fill-rule="nonzero" fill="#797979" stroke="none" />
</svg>