<?xml version="1.0" encoding="utf-8"?>
<svg version="1.1" xmlns:xlink="http://www.w3.org/1999/xlink" width="31px" height="38px" xmlns="http://www.w3.org/2000/svg">
  <defs>
    <filter x="1311px" y="311px" width="31px" height="38px" filterUnits="userSpaceOnUse" id="filter25">
      <feOffset dx="1" dy="1" in="SourceAlpha" result="shadowOffsetInner" />
      <feGaussianBlur stdDeviation="2.5" in="shadowOffsetInner" result="shadowGaussian" />
      <feComposite in2="shadowGaussian" operator="atop" in="SourceAlpha" result="shadowComposite" />
      <feColorMatrix type="matrix" values="0 0 0 0 0  0 0 0 0 0  0 0 0 0 0  0 0 0 0.698039215686274 0  " in="shadowComposite" />
    </filter>
    <g id="widget26">
      <path d="M 1325.5 342.036928468354  C 1321.5 335.40734059591  1315.5 331.429587872444  1315.5 324.8  C 1315.5 321.345714285714  1317.5 315.5  1325.5 315.5  C 1333.5 315.5  1335.5 321.345714285714  1335.5 324.8  C 1335.5 331.429587872444  1329.5 335.40734059591  1325.5 342.036928468354  Z " fill-rule="nonzero" fill="#009dd9" stroke="none" />
      <path d="M 1325.5 343  C 1321.3 336  1315 331.8  1315 324.8  C 1315 321.16  1317.1 315  1325.5 315  C 1333.9 315  1336 321.16  1336 324.8  C 1336 331.8  1329.7 336  1325.5 343  Z M 1325.5 341.073856936707  C 1329.3 334.81468119182  1335 331.059175744887  1335 324.8  C 1335 321.531428571429  1333.1 316  1325.5 316  C 1317.9 316  1316 321.531428571429  1316 324.8  C 1316 331.059175744887  1321.7 334.81468119182  1325.5 341.073856936707  Z " fill-rule="nonzero" fill="#ffffff" stroke="none" />
    </g>
  </defs>
  <g transform="matrix(1 0 0 1 -1311 -311 )">
    <use xlink:href="#widget26" filter="url(#filter25)" />
    <use xlink:href="#widget26" />
  </g>
</svg>