<?xml version="1.0" encoding="utf-8"?>
<svg version="1.1" xmlns:xlink="http://www.w3.org/1999/xlink" width="41px" height="36px" xmlns="http://www.w3.org/2000/svg">
  <g transform="matrix(1 0 0 1 -1031 -133 )">
    <path d="M 19.1210762331839 27  L 20.4080717488789 27  L 23.0739910313901 24.0340909090909  L 19.5807174887892 20.1477272727273  L 16.914798206278 23.1136363636364  L 16.914798206278 24.5454545454545  L 19.1210762331839 24.5454545454545  L 19.1210762331839 27  Z M 30.497197309417 9.43465909090909  C 30.7576606875934 9.14488636363636  30.7653213751868 8.86363636363636  30.5201793721973 8.59090909090909  C 30.2750373692078 8.31818181818181  30.0222346786248 8.32670454545454  29.7617713004484 8.61647727272727  L 21.7180493273543 17.5653409090909  C 21.4575859491779 17.8551136363636  21.4499252615845 18.1363636363636  21.695067264574 18.4090909090909  C 21.9402092675635 18.6818181818182  22.1930119581465 18.6732954545455  22.4534753363229 18.3835227272727  L 30.497197309417 9.43465909090909  Z M 31.8991031390135 23.0369318181818  C 32.2055306427504 23.1732954545455  32.3587443946188 23.4204545454545  32.3587443946188 23.7784090909091  L 32.3587443946188 28.6363636363636  C 32.3587443946188 30.6647727272727  31.7114162929746 32.3991477272727  30.4167600896861 33.8394886363636  C 29.1221038863976 35.2798295454545  27.563153961136 36  25.7399103139013 36  L 6.61883408071749 36  C 4.79559043348281 36  3.23664050822123 35.2798295454545  1.94198430493274 33.8394886363636  C 0.647328101644245 32.3991477272727  0 30.6647727272727  0 28.6363636363636  L 0 7.36363636363637  C 0 5.33522727272727  0.647328101644245 3.60085227272727  1.94198430493274 2.16051136363637  C 3.23664050822123 0.720170454545451  4.79559043348281 0  6.61883408071749 0  L 25.7399103139013 0  C 26.7051569506726 0  27.6014573991031 0.21306818181818  28.4288116591928 0.639204545454544  C 28.6586322869955 0.758522727272725  28.7965246636771 0.954545454545454  28.8424887892377 1.22727272727273  C 28.8884529147982 1.51704545454545  28.8195067264574 1.76420454545454  28.6356502242152 1.96875  L 27.5095291479821 3.22159090909091  C 27.2950298953662 3.46022727272727  27.0498878923767 3.52840909090909  26.7741031390135 3.42613636363637  C 26.421711509716 3.32386363636363  26.076980568012 3.27272727272727  25.7399103139013 3.27272727272727  L 6.61883408071749 3.27272727272727  C 5.60762331838565 3.27272727272727  4.74196562032885 3.67329545454545  4.02186098654709 4.47443181818182  C 3.30175635276532 5.27556818181818  2.94170403587444 6.23863636363637  3 7.36363636363637  L 3 28.6363636363636  C 2.94170403587444 29.7613636363636  3.30175635276532 30.7244318181818  4.02186098654709 31.5255681818182  C 4.74196562032885 32.3267045454545  5.60762331838565 32.7272727272727  6.61883408071749 32.7272727272727  L 25.7399103139013 32.7272727272727  C 26.7511210762332 32.7272727272727  27.61677877429 32.3267045454545  28.3368834080717 31.5255681818182  C 29.0569880418535 30.7244318181818  29.4170403587444 29.7613636363636  29.4170403587444 28.6363636363636  L 29.4170403587444 25.4147727272727  C 29.4170403587444 25.1931818181818  29.4859865470852 25.0056818181818  29.6238789237668 24.8522727272727  L 31.094730941704 23.2159090909091  C 31.3245515695067 22.9602272727273  31.5926756352765 22.9005681818182  31.8991031390135 23.0369318181818  Z M 14.7085201793722 22.0909090909091  L 30.152466367713 4.90909090909091  L 36.7713004484305 12.2727272727273  L 21.3273542600897 29.4545454545455  L 14.7085201793722 29.4545454545455  L 14.7085201793722 22.0909090909091  Z M 41 6.54545454545454  C 41 7.22727272727272  40.7855007473842 7.80681818181818  40.3565022421525 8.28409090909091  L 38.2421524663677 10.6363636363636  L 31.6233183856502 3.27272727272727  L 33.737668161435 0.920454545454544  C 34.1666666666667 0.443181818181815  34.6875934230194 0.204545454545456  35.3004484304933 0.204545454545456  C 35.9133034379671 0.204545454545456  36.4342301943199 0.443181818181815  36.8632286995516 0.920454545454544  L 40.3565022421525 4.80681818181818  C 40.7855007473842 5.2840909090909  41 5.86363636363636  41 6.54545454545454  Z " fill-rule="nonzero" fill="#000000" stroke="none" transform="matrix(1 0 0 1 1031 133 )" />
  </g>
</svg>