<?xml version="1.0" encoding="utf-8"?>
<svg version="1.1" xmlns:xlink="http://www.w3.org/1999/xlink" width="218px" height="218px" xmlns="http://www.w3.org/2000/svg">
  <g transform="matrix(1 0 0 1 -265 -205 )">
    <path d="M 374.500192657761 205.501128625286  C 434.192986055693 205.770555105967  482.5 254.243923727765  482.5 314  C 482.5 373.922895356641  433.922895356641 422.5  374 422.5  C 314.077104643359 422.5  265.5 373.922895356641  265.5 314  C 265.5 267.99332775447  294.511830313096 227.008339432477  337.857406936224 211.696700643633  L 373.527793734132 314.164381393336  A 0.5 0.5 0 0 0 374.5 314 L 374.500192171971 205.501128623093  Z " fill-rule="nonzero" fill="#5899da" stroke="none" />
    <path d="M 374.500192657761 205.501128625286  C 434.192986055693 205.770555105967  482.5 254.243923727765  482.5 314  C 482.5 373.922895356641  433.922895356641 422.5  374 422.5  C 314.077104643359 422.5  265.5 373.922895356641  265.5 314  C 265.5 267.99332775447  294.511830313096 227.008339432477  337.857406936224 211.696700643633  L 373.527793734132 314.164381393336  A 0.5 0.5 0 0 0 374.5 314 L 374.500192171971 205.501128623093  Z " stroke-width="1" stroke="#ffffff" fill="none" />
  </g>
</svg>