<?xml version="1.0" encoding="utf-8"?>
<svg version="1.1" xmlns:xlink="http://www.w3.org/1999/xlink" width="218px" height="218px" xmlns="http://www.w3.org/2000/svg">
  <g transform="matrix(1 0 0 1 -265 -205 )">
    <path d="M 474.927141529096 274.175860063675  C 479.930333892564 286.855541489605  482.5 300.365938465319  482.5 314  C 482.5 373.922895356641  433.922895356641 422.5  374 422.5  C 314.077104643359 422.5  265.5 373.922895356641  265.5 314  C 265.5 266.301452717701  296.647476329456 224.218496224189  342.216934455096 210.259510652663  L 373.521263396223 314.144261097335  A 0.5 0.5 0 0 0 374.185662760718 314.464251375101 L 474.927141529096 274.175860063675  Z " fill-rule="nonzero" fill="#e8743b" stroke="none" />
    <path d="M 474.927141529096 274.175860063675  C 479.930333892564 286.855541489605  482.5 300.365938465319  482.5 314  C 482.5 373.922895356641  433.922895356641 422.5  374 422.5  C 314.077104643359 422.5  265.5 373.922895356641  265.5 314  C 265.5 266.301452717701  296.647476329456 224.218496224189  342.216934455096 210.259510652663  L 373.521263396223 314.144261097335  A 0.5 0.5 0 0 0 374.185662760718 314.464251375101 L 474.927141529096 274.175860063675  Z " stroke-width="1" stroke="#ffffff" fill="none" />
  </g>
</svg>