<?xml version="1.0" encoding="utf-8"?>
<svg version="1.1" xmlns:xlink="http://www.w3.org/1999/xlink" width="218px" height="218px" xmlns="http://www.w3.org/2000/svg">
  <g transform="matrix(1 0 0 1 -265 -205 )">
    <path d="M 456.025003291915 385.02217499551  C 435.421768322215 408.817725868141  405.492157328145 422.5  374 422.5  C 314.077104643359 422.5  265.5 373.922895356641  265.5 314  C 265.5 254.243923727765  313.807013944307 205.770555105967  373.499807342239 205.501128625286  L 373.5 314  A 0.5 0.5 0 0 0 373.674454267527 314.379499639089 L 456.025003292445 385.022174994899  Z " fill-rule="nonzero" fill="#19a979" stroke="none" />
    <path d="M 456.025003291915 385.02217499551  C 435.421768322215 408.817725868141  405.492157328145 422.5  374 422.5  C 314.077104643359 422.5  265.5 373.922895356641  265.5 314  C 265.5 254.243923727765  313.807013944307 205.770555105967  373.499807342239 205.501128625286  L 373.5 314  A 0.5 0.5 0 0 0 373.674454267527 314.379499639089 L 456.025003292445 385.022174994899  Z " stroke-width="1" stroke="#ffffff" fill="none" />
  </g>
</svg>